<?xml version="1.0" encoding="UTF-8" standalone="no"?>
<!-- Created with Inkscape (http://www.inkscape.org/) -->

<svg
   width="1080"
   height="1080"
   viewBox="0 0 1080 1080"
   version="1.1"
   id="svg1"
   xml:space="preserve"
   inkscape:version="1.4.2 (f4327f4, 2025-05-13)"
   sodipodi:docname="bluesky_Rond.svg"
   xmlns:inkscape="http://www.inkscape.org/namespaces/inkscape"
   xmlns:sodipodi="http://sodipodi.sourceforge.net/DTD/sodipodi-0.dtd"
   xmlns="http://www.w3.org/2000/svg"
   xmlns:svg="http://www.w3.org/2000/svg"><sodipodi:namedview
     id="namedview1"
     pagecolor="#878787"
     bordercolor="#000000"
     borderopacity="0.25"
     inkscape:showpageshadow="2"
     inkscape:pageopacity="0.0"
     inkscape:pagecheckerboard="0"
     inkscape:deskcolor="#d1d1d1"
     inkscape:document-units="px"
     inkscape:zoom="0.35787037"
     inkscape:cx="-153.68693"
     inkscape:cy="683.20828"
     inkscape:window-width="1920"
     inkscape:window-height="991"
     inkscape:window-x="-9"
     inkscape:window-y="-9"
     inkscape:window-maximized="1"
     inkscape:current-layer="g9" /><defs
     id="defs1" /><g
     inkscape:label="Cirkel"
     inkscape:groupmode="layer"
     id="layer1"
     style="display:none"><circle
       style="fill:#ffffff;fill-opacity:1"
       id="path1"
       cx="540"
       cy="540"
       r="467.29422" /></g><g
     inkscape:label="Bluesky"
     inkscape:groupmode="layer"
     id="g9"
     style="display:inline"><path
       id="circle8"
       style="fill:#ffffff;fill-opacity:1"
       d="M 540 72.705078 A 467.29422 467.29422 0 0 0 72.705078 540 A 467.29422 467.29422 0 0 0 540 1007.2949 A 467.29422 467.29422 0 0 0 1007.2949 540 A 467.29422 467.29422 0 0 0 540 72.705078 z M 296.69531 297.08008 C 343.55405 298.52188 424.65541 368.44977 540 506.86328 C 734.26458 273.74579 831.39648 234.89302 831.39648 390.30469 C 831.39648 545.71636 782.8315 623.42188 685.69922 623.42188 C 782.83151 681.70124 792.54373 739.98039 714.83789 798.25977 C 637.13205 856.53913 578.85292 827.40053 540 710.8418 C 501.14708 827.40053 442.86794 856.53913 365.16211 798.25977 C 287.45628 739.98039 297.1685 681.70124 394.30078 623.42188 C 297.1685 623.42188 248.60352 545.71636 248.60352 390.30469 C 248.60352 327.1687 264.63407 296.09358 296.69531 297.08008 z " /></g><g
     inkscape:label="Email"
     inkscape:groupmode="layer"
     id="g6"
     style="display:none"><path
       id="circle6"
       style="fill:#ffffff;fill-opacity:1"
       d="M 540,72.705078 A 467.29422,467.29422 0 0 0 72.705078,540 467.29422,467.29422 0 0 0 540,1007.2949 467.29422,467.29422 0 0 0 1007.2949,540 467.29422,467.29422 0 0 0 540,72.705078 Z M 327.20312,310.05469 h 425.59376 c 62.1833,0 112.24414,50.06083 112.24414,112.24414 v 235.40234 c 0,62.18331 -50.06084,112.24414 -112.24414,112.24414 H 327.20312 c -62.1833,0 -112.24414,-50.06083 -112.24414,-112.24414 V 422.29883 c 0,-62.18331 50.06084,-112.24414 112.24414,-112.24414 z" /><g
       id="g8"><path
         style="fill:none;fill-opacity:1;stroke:#ffffff;stroke-width:75;stroke-linecap:round;stroke-linejoin:round;stroke-miterlimit:50;stroke-dasharray:none;stroke-opacity:1;paint-order:normal"
         d="M 251.92394,358.62114 531.51012,527.55837"
         id="path8"
         sodipodi:nodetypes="cc" /><path
         style="fill:none;fill-opacity:1;stroke:#ffffff;stroke-width:75;stroke-linecap:round;stroke-linejoin:round;stroke-miterlimit:50;stroke-dasharray:none;stroke-opacity:1;paint-order:normal"
         d="M 830.70977,364.03077 533.8347,527.78132"
         id="path8-7"
         sodipodi:nodetypes="cc" /></g></g><g
     inkscape:label="Linkedin"
     inkscape:groupmode="layer"
     id="g5"
     style="display:none"><path
       id="circle5"
       style="display:inline;fill:#ffffff;fill-opacity:1"
       d="M 540,72.705078 A 467.29422,467.29422 0 0 0 72.705078,540 467.29422,467.29422 0 0 0 540,1007.2949 467.29422,467.29422 0 0 0 1007.2949,540 467.29422,467.29422 0 0 0 540,72.705078 Z M 320.02539,255.32617 h 439.94922 c 35.37711,0 64.69922,29.32211 64.69922,64.69922 v 439.94922 c 0,35.37712 -29.32211,64.69922 -64.69922,64.69922 H 320.02539 c -35.37709,0 -64.69922,-29.3221 -64.69922,-64.69922 V 320.02539 a 65.164253,65.164253 0 0 1 64.69922,-64.69922 z m 0,51.75977 c -7.37561,1e-5 -12.93945,5.56381 -12.93945,12.93945 v 439.94922 a 12.655011,12.655011 0 0 0 12.93945,12.93945 h 439.94922 a 12.680892,12.680892 0 0 0 12.93945,-12.93945 V 320.02539 c 0,-7.37561 -5.56382,-12.93945 -12.93945,-12.93945 z m 76.0332,44.48633 a 44.486638,44.486638 0 0 1 0,88.94726 44.486638,44.486638 0 1 1 0,-88.94726 z M 629.75,469.63477 h 0.0254 c 77.32755,0 91.38086,50.36113 91.38086,116.45703 V 721.15625 H 645.14844 V 601.46289 c 0,-28.51907 -0.51885,-64.69727 -39.64844,-64.69727 -39.72485,10e-6 -46.08984,31.02971 -46.08984,63.06836 V 721.15625 H 483.375 V 475.30078 h 72.79883 v 33.95508 h 1.63086 c 10.19648,-19.30601 34.86017,-39.62109 71.94531,-39.62109 z m -270.90625,5.66601 h 76.83594 v 245.85547 h -76.83594 z" /></g><g
     inkscape:label="Insta"
     inkscape:groupmode="layer"
     id="g2"
     style="display:none"><path
       id="circle1"
       style="display:inline;fill:#ffffff;fill-opacity:1"
       d="M 540,72.705078 C 416.06562,72.704892 297.20722,121.93755 209.57239,209.57239 121.93755,297.20722 72.704892,416.06562 72.705078,540 72.704898,663.93437 121.93756,782.79277 209.57239,870.4276 297.20723,958.06243 416.06563,1007.2951 540,1007.2949 663.93437,1007.2951 782.79276,958.06242 870.42759,870.42759 958.06242,782.79276 1007.2951,663.93437 1007.2949,540 1007.2951,416.06563 958.06243,297.20723 870.4276,209.57239 782.79277,121.93756 663.93437,72.704898 540,72.705078 Z M 379.62891,259.32227 h 320.78906 c 66.43041,4e-4 120.2828,53.85279 120.2832,120.2832 v 320.78906 c -4e-4,66.43041 -53.85279,120.2828 -120.2832,120.2832 H 379.58203 c -66.43041,-4e-4 -120.2828,-53.85279 -120.2832,-120.2832 V 379.55859 l 0.0469,0.0469 c 4e-4,-66.43041 53.8528,-120.2828 120.28321,-120.2832 z m 325.12804,97.97575 c -6.50074,-0.0661 -11.80594,5.18545 -11.80594,11.68652 0,6.50108 5.3052,11.75262 11.80594,11.68653 6.50075,0.0661 11.80594,-5.18545 11.80594,-11.68653 0,-6.50107 -5.30519,-11.75262 -11.80594,-11.68652 z M 531.88867,421.06836 C 469.35448,425.3455 420.81404,477.31971 420.81445,540 c 0,65.83735 53.37168,119.20893 119.20899,119.20893 65.8373,0 119.20898,-53.37158 119.20898,-119.20893 4.7e-4,-69.03984 -58.46486,-123.64305 -127.34375,-118.93164 z"
       sodipodi:nodetypes="cscscscsccccccccccccscscccscc" /><circle
       style="fill:#ffffff;fill-opacity:1"
       id="path5"
       cx="711.80865"
       cy="371.46432"
       r="31.120016" /></g><g
     id="g10"
     transform="matrix(0.88778005,0,0,0.88778005,60.598769,82.598773)" /></svg>
