<?xml version="1.0" encoding="UTF-8" standalone="no"?>
<!-- Created with Inkscape (http://www.inkscape.org/) -->

<svg
   width="934.58984"
   height="934.58984"
   viewBox="0 0 934.58984 934.58984"
   version="1.1"
   id="svg1"
   xml:space="preserve"
   xmlns="http://www.w3.org/2000/svg"
   xmlns:svg="http://www.w3.org/2000/svg"><defs
     id="defs1" /><g
     id="layer1"
     style="display:none"
     transform="translate(-72.705078,-72.705078)"><circle
       style="fill:#ffffff;fill-opacity:1"
       id="path1"
       cx="540"
       cy="540"
       r="467.29422" /></g><g
     id="g3"
     style="display:inline"
     transform="translate(-72.705078,-72.705078)"><path
       id="circle2"
       style="fill:#ffffff;fill-opacity:1"
       d="M 540,72.705078 A 467.29422,467.29422 0 0 0 72.705078,540 467.29422,467.29422 0 0 0 540,1007.2949 467.29422,467.29422 0 0 0 1007.2949,540 467.29422,467.29422 0 0 0 540,72.705078 Z M 453.11719,293.80078 c 5.67114,-0.10691 10.84196,3.30421 13.22851,8.55469 0.16972,0.39593 2.14927,4.92093 4.35547,12.10547 -38.12844,6.39238 -84.9686,19.40365 -127.33984,45.65234 -6.78844,4.24279 -8.88147,13.12369 -4.63867,19.96875 4.18633,6.78847 13.12366,8.88147 19.91211,4.63867 C 431.44101,339.52098 522.46313,337.25977 540,337.25977 c 17.53687,0 108.50251,2.26121 181.36523,47.46093 2.37592,1.4705 5.03444,2.20703 7.63672,2.20703 4.86509,0 9.56018,-2.43334 12.33203,-6.90234 4.18633,-6.78845 2.09314,-15.72593 -4.69531,-19.91211 -42.37139,-26.30531 -89.2114,-39.25999 -127.33984,-45.70898 2.2062,-7.12793 4.1862,-11.70997 4.41211,-12.04883 2.48919,-5.60051 8.25945,-8.99611 14.3125,-8.48633 3.90334,0.28284 95.09493,8.14536 152.74023,54.5332 31.28351,28.85082 92.32227,193.81166 92.32227,336.42578 0,2.54566 -0.67787,4.97741 -1.92188,7.1836 -42.08839,73.99405 -156.98372,93.34079 -183.17578,94.18945 h -0.45117 c -4.63875,0 -8.99554,-2.20584 -11.71094,-5.93945 l -26.47461,-36.43164 c 71.44855,-18.44186 107.9362,-49.7817 110.0293,-51.64844 5.99583,-5.26103 6.56181,-14.36879 1.30078,-20.36523 -5.31766,-6.05233 -14.42544,-6.56198 -20.42187,-1.35743 -0.67891,0.56569 -67.88487,57.81446 -200.25977,57.81446 -132.14853,0 -199.35449,-57.02228 -200.20312,-57.81446 -5.99643,-5.2616 -15.16085,-4.69563 -20.42188,1.30079 -5.31809,5.99644 -4.7523,15.16084 1.24414,20.42187 2.09309,1.86672 38.5809,33.20659 110.0293,51.64844 l -26.47461,36.43164 c -2.71538,3.73361 -7.07221,5.93945 -11.71094,5.93945 h -0.45117 c -26.19205,-0.84864 -141.08736,-20.1954 -183.17578,-94.18945 -1.24414,-2.20619 -1.92188,-4.63794 -1.92188,-7.1836 0,-142.6141 61.03978,-307.5742 91.53125,-335.80273 58.43732,-47.01012 149.62776,-54.87385 153.53125,-55.15625 0.38185,-0.0389 0.76255,-0.0612 1.14063,-0.0684 z m -7.25,217.24219 c -28.00232,0 -50.6875,25.90883 -50.6875,57.92773 0,32.01877 22.68518,57.92969 50.6875,57.92969 28.0023,0 50.6875,-25.91092 50.6875,-57.92969 0,-32.0189 -22.6852,-57.92773 -50.6875,-57.92773 z m 188.26562,0 c -28.00231,0 -50.68554,25.90883 -50.68554,57.92773 0,32.01877 22.68323,57.92969 50.68554,57.92969 28.00231,0 50.6875,-25.91092 50.6875,-57.92969 0,-32.0189 -22.68519,-57.92773 -50.6875,-57.92773 z" /></g><g
     id="g2"
     style="display:none"
     transform="translate(-72.705078,-72.705078)"><path
       id="circle1"
       style="display:inline;fill:#ffffff;fill-opacity:1"
       d="M 540,72.705078 C 416.06562,72.704892 297.20722,121.93755 209.57239,209.57239 121.93755,297.20722 72.704892,416.06562 72.705078,540 72.704898,663.93437 121.93756,782.79277 209.57239,870.4276 297.20723,958.06243 416.06563,1007.2951 540,1007.2949 663.93437,1007.2951 782.79276,958.06242 870.42759,870.42759 958.06242,782.79276 1007.2951,663.93437 1007.2949,540 1007.2951,416.06563 958.06243,297.20723 870.4276,209.57239 782.79277,121.93756 663.93437,72.704898 540,72.705078 Z M 379.62891,259.32227 h 320.78906 c 66.43041,4e-4 120.2828,53.85279 120.2832,120.2832 v 320.78906 c -4e-4,66.43041 -53.85279,120.2828 -120.2832,120.2832 H 379.58203 c -66.43041,-4e-4 -120.2828,-53.85279 -120.2832,-120.2832 V 379.55859 l 0.0469,0.0469 c 4e-4,-66.43041 53.8528,-120.2828 120.28321,-120.2832 z m 325.12804,97.97575 c -6.50074,-0.0661 -11.80594,5.18545 -11.80594,11.68652 0,6.50108 5.3052,11.75262 11.80594,11.68653 6.50075,0.0661 11.80594,-5.18545 11.80594,-11.68653 0,-6.50107 -5.30519,-11.75262 -11.80594,-11.68652 z M 531.88867,421.06836 C 469.35448,425.3455 420.81404,477.31971 420.81445,540 c 0,65.83735 53.37168,119.20893 119.20899,119.20893 65.8373,0 119.20898,-53.37158 119.20898,-119.20893 4.7e-4,-69.03984 -58.46486,-123.64305 -127.34375,-118.93164 z" /><circle
       style="fill:#ffffff;fill-opacity:1"
       id="path5"
       cx="711.80865"
       cy="371.46432"
       r="31.120016" /></g></svg>
