<?xml version="1.0" encoding="UTF-8" standalone="no"?><!DOCTYPE svg PUBLIC "-//W3C//DTD SVG 1.1//EN" "http://www.w3.org/Graphics/SVG/1.1/DTD/svg11.dtd"><svg width="100%" height="100%" viewBox="0 0 4500 4500" version="1.1" xmlns="http://www.w3.org/2000/svg" xmlns:xlink="http://www.w3.org/1999/xlink" xml:space="preserve" xmlns:serif="http://www.serif.com/" style="fill-rule:evenodd;clip-rule:evenodd;stroke-linejoin:round;stroke-miterlimit:2;"><clipPath id="_clip1"><rect x="302.938" y="248.793" width="3894.124" height="3894.124"/></clipPath><g clip-path="url(#_clip1)"><g id="g3"><path id="circle2" d="M2250.003,248.793c-0.001,0 -0.005,-0 -0.006,-0c-1068.125,0 -1947.059,878.934 -1947.059,1947.059c-0,0.001 0,0.005 0,0.006c0,1068.125 878.934,1947.059 1947.059,1947.059c0.001,0 0.005,-0 0.006,-0c1068.125,0 1947.059,-878.934 1947.059,-1947.059c0,-0.001 0,-0.005 0,-0.006c0,-1068.125 -878.934,-1947.059 -1947.059,-1947.059Zm-362.015,921.232c23.63,-0.445 45.175,13.768 55.119,35.645c0.707,1.65 8.955,20.504 18.148,50.439c-158.869,26.635 -354.036,80.849 -530.583,190.218c-28.285,17.678 -37.006,54.682 -19.328,83.203c17.443,28.285 54.682,37.006 82.967,19.328c303.359,-188.332 682.618,-197.754 755.688,-197.754c73.07,0 452.094,9.422 755.688,197.754c9.9,6.127 20.977,9.196 31.82,9.196c20.271,0 39.834,-10.139 51.383,-28.76c17.443,-28.285 8.721,-65.525 -19.564,-82.967c-176.547,-109.605 -371.714,-163.583 -530.583,-190.454c9.193,-29.7 17.443,-48.792 18.384,-50.203c10.372,-23.335 34.414,-37.484 59.635,-35.36c16.264,1.179 396.229,33.939 636.418,227.222c130.348,120.212 384.676,807.549 384.676,1401.774c0,10.607 -2.824,20.739 -8.008,29.932c-175.368,308.309 -654.099,388.92 -763.232,392.456l-1.88,0c-19.328,0 -37.481,-9.191 -48.796,-24.748l-110.311,-151.798c297.702,-76.841 449.734,-207.424 458.455,-215.202c24.983,-21.921 27.341,-59.87 5.42,-84.855c-22.157,-25.218 -60.106,-27.342 -85.091,-5.656c-2.829,2.357 -282.854,240.894 -834.416,240.894c-550.619,0 -830.644,-237.593 -834.18,-240.894c-24.985,-21.923 -63.17,-19.565 -85.091,5.42c-22.159,24.985 -19.801,63.17 5.184,85.091c8.721,7.778 160.754,138.361 458.455,215.202l-110.311,151.798c-11.314,15.557 -29.468,24.748 -48.796,24.748l-1.88,0c-109.134,-3.536 -587.864,-84.148 -763.232,-392.456c-5.184,-9.192 -8.008,-19.325 -8.008,-29.932c0,-594.225 254.332,-1281.559 381.38,-1399.178c243.489,-195.876 623.449,-228.641 639.714,-229.818c1.591,-0.162 3.177,-0.255 4.753,-0.285l-0,0Zm-30.208,905.176c-116.676,0 -211.198,107.953 -211.198,241.366c0,133.412 94.522,241.374 211.198,241.374c116.676,0 211.198,-107.962 211.198,-241.374c0,-133.412 -94.522,-241.366 -211.198,-241.366Zm784.44,0c-116.676,0 -211.19,107.953 -211.19,241.366c0,133.412 94.513,241.374 211.19,241.374c116.676,0 211.198,-107.962 211.198,-241.374c0,-133.412 -94.522,-241.366 -211.198,-241.366Z" style="fill:#fff;fill-rule:nonzero;"/></g></g></svg>