<?xml version="1.0" encoding="UTF-8" standalone="no"?>
<!-- Created with Inkscape (http://www.inkscape.org/) -->

<svg
   width="1080"
   height="1080"
   viewBox="0 0 1080 1080"
   version="1.1"
   id="svg1"
   xml:space="preserve"
   inkscape:version="1.4.2 (f4327f4, 2025-05-13)"
   sodipodi:docname="Insta_Rond.svg"
   xmlns:inkscape="http://www.inkscape.org/namespaces/inkscape"
   xmlns:sodipodi="http://sodipodi.sourceforge.net/DTD/sodipodi-0.dtd"
   xmlns="http://www.w3.org/2000/svg"
   xmlns:svg="http://www.w3.org/2000/svg"><sodipodi:namedview
     id="namedview1"
     pagecolor="#878787"
     bordercolor="#000000"
     borderopacity="0.25"
     inkscape:showpageshadow="2"
     inkscape:pageopacity="0.0"
     inkscape:pagecheckerboard="0"
     inkscape:deskcolor="#d1d1d1"
     inkscape:document-units="px"
     inkscape:zoom="0.50610513"
     inkscape:cx="243.03251"
     inkscape:cy="676.73686"
     inkscape:window-width="1920"
     inkscape:window-height="991"
     inkscape:window-x="-9"
     inkscape:window-y="-9"
     inkscape:window-maximized="1"
     inkscape:current-layer="g2" /><defs
     id="defs1" /><g
     inkscape:label="Cirkel"
     inkscape:groupmode="layer"
     id="layer1"
     style="display:none"><circle
       style="fill:#ffffff;fill-opacity:1"
       id="path1"
       cx="540"
       cy="540"
       r="467.29422" /></g><g
     inkscape:label="Insta"
     inkscape:groupmode="layer"
     id="g2"><path
       id="circle1"
       style="display:inline;fill:#ffffff;fill-opacity:1"
       d="M 540,72.705078 C 416.06562,72.704892 297.20722,121.93755 209.57239,209.57239 121.93755,297.20722 72.704892,416.06562 72.705078,540 72.704898,663.93437 121.93756,782.79277 209.57239,870.4276 297.20723,958.06243 416.06563,1007.2951 540,1007.2949 663.93437,1007.2951 782.79276,958.06242 870.42759,870.42759 958.06242,782.79276 1007.2951,663.93437 1007.2949,540 1007.2951,416.06563 958.06243,297.20723 870.4276,209.57239 782.79277,121.93756 663.93437,72.704898 540,72.705078 Z M 379.62891,259.32227 h 320.78906 c 66.43041,4e-4 120.2828,53.85279 120.2832,120.2832 v 320.78906 c -4e-4,66.43041 -53.85279,120.2828 -120.2832,120.2832 H 379.58203 c -66.43041,-4e-4 -120.2828,-53.85279 -120.2832,-120.2832 V 379.55859 l 0.0469,0.0469 c 4e-4,-66.43041 53.8528,-120.2828 120.28321,-120.2832 z m 325.12804,97.97575 c -6.50074,-0.0661 -11.80594,5.18545 -11.80594,11.68652 0,6.50108 5.3052,11.75262 11.80594,11.68653 6.50075,0.0661 11.80594,-5.18545 11.80594,-11.68653 0,-6.50107 -5.30519,-11.75262 -11.80594,-11.68652 z M 531.88867,421.06836 C 469.35448,425.3455 420.81404,477.31971 420.81445,540 c 0,65.83735 53.37168,119.20893 119.20899,119.20893 65.8373,0 119.20898,-53.37158 119.20898,-119.20893 4.7e-4,-69.03984 -58.46486,-123.64305 -127.34375,-118.93164 z"
       sodipodi:nodetypes="cscscscsccccccccccccscscccscc" /><circle
       style="fill:#ffffff;fill-opacity:1"
       id="path5"
       cx="711.80865"
       cy="371.46432"
       r="31.120016" /></g></svg>
