<?xml version="1.0" encoding="UTF-8" standalone="no"?><!DOCTYPE svg PUBLIC "-//W3C//DTD SVG 1.1//EN" "http://www.w3.org/Graphics/SVG/1.1/DTD/svg11.dtd"><svg width="100%" height="100%" viewBox="0 0 4500 4500" version="1.1" xmlns="http://www.w3.org/2000/svg" xmlns:xlink="http://www.w3.org/1999/xlink" xml:space="preserve" xmlns:serif="http://www.serif.com/" style="fill-rule:evenodd;clip-rule:evenodd;stroke-linejoin:round;stroke-miterlimit:2;"><g id="Insta"><path id="circle1" d="M2250,248.793c-516.393,-0.001 -1011.637,205.135 -1376.782,570.28c-365.145,365.145 -570.281,860.388 -570.28,1376.782c-0.001,516.393 205.135,1011.637 570.28,1376.782c365.145,365.145 860.389,570.281 1376.782,570.28c516.393,0.001 1011.637,-205.135 1376.782,-570.28c365.145,-365.145 570.281,-860.388 570.28,-1376.782c0.001,-516.393 -205.135,-1011.637 -570.28,-1376.782c-365.145,-365.145 -860.388,-570.281 -1376.782,-570.28Zm-668.213,777.572l1336.621,0c276.793,0.002 501.178,224.387 501.18,501.18l0,1336.621c-0.002,276.793 -224.387,501.178 -501.18,501.18l-1336.816,0c-276.793,-0.002 -501.178,-224.387 -501.18,-501.18l0,-1336.816l0.195,0.195c0.002,-276.793 224.387,-501.178 501.18,-501.18l-0,-0Zm1354.7,408.232c-27.086,-0.275 -49.191,21.606 -49.191,48.694c0,27.088 22.105,48.969 49.191,48.694c27.086,0.275 49.191,-21.606 49.191,-48.694c0,-27.088 -22.105,-48.969 -49.191,-48.694Zm-720.284,265.71c-260.559,17.821 -462.811,234.381 -462.809,495.549c0,274.322 222.382,496.704 496.704,496.704c274.322,0 496.704,-222.382 496.704,-496.704c0.002,-287.666 -243.604,-515.179 -530.599,-495.549Z" style="fill:#fff;fill-rule:nonzero;"/><circle id="path5" cx="2965.869" cy="1493.624" r="129.667" style="fill:#fff;"/></g></svg>