<?xml version="1.0" encoding="UTF-8" standalone="no"?>
<!-- Created with Inkscape (http://www.inkscape.org/) -->

<svg
   width="1080"
   height="1080"
   viewBox="0 0 1080 1080"
   version="1.1"
   id="svg1"
   xml:space="preserve"
   inkscape:version="1.4.2 (f4327f4, 2025-05-13)"
   sodipodi:docname="linkedin_Rond.svg"
   xmlns:inkscape="http://www.inkscape.org/namespaces/inkscape"
   xmlns:sodipodi="http://sodipodi.sourceforge.net/DTD/sodipodi-0.dtd"
   xmlns="http://www.w3.org/2000/svg"
   xmlns:svg="http://www.w3.org/2000/svg"><sodipodi:namedview
     id="namedview1"
     pagecolor="#878787"
     bordercolor="#000000"
     borderopacity="0.25"
     inkscape:showpageshadow="2"
     inkscape:pageopacity="0.0"
     inkscape:pagecheckerboard="0"
     inkscape:deskcolor="#d1d1d1"
     inkscape:document-units="px"
     inkscape:zoom="0.50610513"
     inkscape:cx="243.03251"
     inkscape:cy="676.73686"
     inkscape:window-width="1920"
     inkscape:window-height="991"
     inkscape:window-x="-9"
     inkscape:window-y="-9"
     inkscape:window-maximized="1"
     inkscape:current-layer="g5" /><defs
     id="defs1" /><g
     inkscape:label="Cirkel"
     inkscape:groupmode="layer"
     id="layer1"
     style="display:none"><circle
       style="fill:#ffffff;fill-opacity:1"
       id="path1"
       cx="540"
       cy="540"
       r="467.29422" /></g><g
     inkscape:label="Linkedin"
     inkscape:groupmode="layer"
     id="g5"
     style="display:inline"><path
       id="circle5"
       style="display:inline;fill:#ffffff;fill-opacity:1"
       d="M 540 72.705078 A 467.29422 467.29422 0 0 0 72.705078 540 A 467.29422 467.29422 0 0 0 540 1007.2949 A 467.29422 467.29422 0 0 0 1007.2949 540 A 467.29422 467.29422 0 0 0 540 72.705078 z M 320.02539 255.32617 L 759.97461 255.32617 C 795.35172 255.32617 824.67383 284.64828 824.67383 320.02539 L 824.67383 759.97461 C 824.67383 795.35173 795.35172 824.67383 759.97461 824.67383 L 320.02539 824.67383 C 284.6483 824.67383 255.32617 795.35173 255.32617 759.97461 L 255.32617 320.02539 A 65.164253 65.164253 0 0 1 320.02539 255.32617 z M 320.02539 307.08594 C 312.64978 307.08595 307.08594 312.64975 307.08594 320.02539 L 307.08594 759.97461 A 12.655011 12.655011 0 0 0 320.02539 772.91406 L 759.97461 772.91406 A 12.680892 12.680892 0 0 0 772.91406 759.97461 L 772.91406 320.02539 C 772.91406 312.64978 767.35024 307.08594 759.97461 307.08594 L 320.02539 307.08594 z M 396.05859 351.57227 A 44.486638 44.486638 0 0 1 396.05859 440.51953 A 44.486638 44.486638 0 1 1 396.05859 351.57227 z M 629.75 469.63477 L 629.77539 469.63477 C 707.10294 469.63477 721.15625 519.9959 721.15625 586.0918 L 721.15625 721.15625 L 645.14844 721.15625 L 645.14844 601.46289 C 645.14844 572.94382 644.62959 536.76562 605.5 536.76562 C 565.77515 536.76563 559.41016 567.79533 559.41016 599.83398 L 559.41016 721.15625 L 483.375 721.15625 L 483.375 475.30078 L 556.17383 475.30078 L 556.17383 509.25586 L 557.80469 509.25586 C 568.00117 489.94985 592.66486 469.63477 629.75 469.63477 z M 358.84375 475.30078 L 435.67969 475.30078 L 435.67969 721.15625 L 358.84375 721.15625 L 358.84375 475.30078 z " /></g><g
     inkscape:label="Insta"
     inkscape:groupmode="layer"
     id="g2"
     style="display:none"><path
       id="circle1"
       style="display:inline;fill:#ffffff;fill-opacity:1"
       d="M 540,72.705078 C 416.06562,72.704892 297.20722,121.93755 209.57239,209.57239 121.93755,297.20722 72.704892,416.06562 72.705078,540 72.704898,663.93437 121.93756,782.79277 209.57239,870.4276 297.20723,958.06243 416.06563,1007.2951 540,1007.2949 663.93437,1007.2951 782.79276,958.06242 870.42759,870.42759 958.06242,782.79276 1007.2951,663.93437 1007.2949,540 1007.2951,416.06563 958.06243,297.20723 870.4276,209.57239 782.79277,121.93756 663.93437,72.704898 540,72.705078 Z M 379.62891,259.32227 h 320.78906 c 66.43041,4e-4 120.2828,53.85279 120.2832,120.2832 v 320.78906 c -4e-4,66.43041 -53.85279,120.2828 -120.2832,120.2832 H 379.58203 c -66.43041,-4e-4 -120.2828,-53.85279 -120.2832,-120.2832 V 379.55859 l 0.0469,0.0469 c 4e-4,-66.43041 53.8528,-120.2828 120.28321,-120.2832 z m 325.12804,97.97575 c -6.50074,-0.0661 -11.80594,5.18545 -11.80594,11.68652 0,6.50108 5.3052,11.75262 11.80594,11.68653 6.50075,0.0661 11.80594,-5.18545 11.80594,-11.68653 0,-6.50107 -5.30519,-11.75262 -11.80594,-11.68652 z M 531.88867,421.06836 C 469.35448,425.3455 420.81404,477.31971 420.81445,540 c 0,65.83735 53.37168,119.20893 119.20899,119.20893 65.8373,0 119.20898,-53.37158 119.20898,-119.20893 4.7e-4,-69.03984 -58.46486,-123.64305 -127.34375,-118.93164 z"
       sodipodi:nodetypes="cscscscsccccccccccccscscccscc" /><circle
       style="fill:#ffffff;fill-opacity:1"
       id="path5"
       cx="711.80865"
       cy="371.46432"
       r="31.120016" /></g></svg>
